<?xml version="1.0" encoding="utf-8"?>
<svg width="185" height="45" viewBox="0 0 185 45" fill="none" xmlns="http://www.w3.org/2000/svg">
<path d="M5.80645 24.4355C5.86694 24.375 7.25806 30 15.0605 29.0323C13.5484 25.3427 8.77016 22.9234 7.68145 22.8629C7.8629 22.6815 9.25403 21.6532 9.49597 21.5323C9.19355 22.5 13.6694 26.6734 17.1169 25.5242C16.2097 22.7419 12.3992 20.3226 11.4315 20.3226C11.8548 20.0806 12.2782 19.7782 12.7016 19.5968C12.4597 20.1411 15.7863 23.3468 19.2944 23.1048C19.3548 21.4113 15.5444 18.2661 14.7581 18.5081C15.121 18.3266 15.6653 18.0242 15.7863 17.9032C16.2702 19.0524 19.5363 21.5323 21.7742 21.1089C19.9597 17.2379 17.6008 16.996 17.6008 16.996C18.2056 16.6935 18.5685 16.5121 18.6895 16.4516C18.6895 17.4798 21.8952 19.8387 24.1331 19.2944C23.7097 17.5403 21.8952 15.9073 20.2016 15.7258C20.625 15.5444 21.0484 15.3024 21.4113 15.1815C21.2298 15.4839 23.9516 17.7823 26.4919 17.6008C25.2823 14.5766 23.5887 14.5161 22.9839 14.3952C23.3468 14.2137 23.7097 14.0323 24.0726 13.8508C24.1936 14.2137 25.5847 16.2097 28.9718 15.7258C28.125 13.9113 26.371 13.3065 25.4032 13.246C25.8871 12.9435 26.25 12.8226 26.6129 12.6411C26.8548 12.9435 27.7016 14.6976 31.0887 14.0323C30.3629 12.2782 28.7903 11.9153 28.1855 11.7944C28.4879 11.6129 28.7903 11.4315 29.0323 11.3105C29.2742 11.7339 31.0282 12.9435 32.9032 12.4597C32.5403 11.4315 31.2097 10.7661 30 10.7661C30.5444 10.4032 31.0282 10.1008 30.9677 10.1008C31.1492 10.5242 32.1774 11.4919 34.5363 10.8266C33.75 9.25403 31.8145 9.43548 31.8145 9.43548C32.2984 9.07258 32.4194 8.95161 32.7823 8.70968C32.8427 8.70968 33.9314 10.2823 35.8669 9.19355C35.2621 8.28629 34.4153 7.8629 33.5685 8.04435C33.8105 7.80242 34.0524 7.62097 34.2944 7.37903C34.2339 7.62097 35.746 8.40726 37.0766 7.37903C36.4113 6.77419 35.746 6.59274 34.9597 6.65323C35.1411 6.41129 35.1411 6.47177 35.3831 6.16935C35.3831 6.16935 36.5927 7.07661 37.6815 5.92742C36.7742 5.2621 35.6855 5.68548 35.6855 5.68548L36.1089 5.02016C36.2903 5.2621 37.5605 5.50403 38.0444 4.65726C37.6815 4.29435 36.5323 4.41532 36.4113 4.47581C36.4718 4.41532 36.5323 4.17339 36.5927 4.05242C38.9516 4.35484 38.1653 1.57258 37.621 0C28.6089 13.6694 16.6331 4.05242 2.05645 12.6411C1.39113 14.3952 1.14919 16.2702 1.33065 18.2056C1.33065 18.3871 1.33065 18.5685 1.45161 18.9919C1.39113 19.1129 1.63306 20.2016 1.99597 21.3508C2.29839 22.1976 2.60081 22.7419 2.96371 23.5887C3.14516 23.4073 3.44758 23.2258 3.56855 23.1048C2.90323 22.1976 0.725807 16.5726 3.44758 13.246C6.04839 13.1855 6.35081 20.625 5.86694 21.4113C5.86694 21.4113 7.07661 20.625 7.5 20.3226C6.95565 20.0806 5.02016 13.6694 8.28629 11.0081C8.28629 11.0081 11.1895 12.0968 9.97984 18.9315C10.4637 18.629 11.1895 18.3266 11.8548 17.9637C11.4919 17.2984 9.49597 12.4597 12.7016 9.91935C14.3952 10.6452 14.3347 15.9073 13.6694 17.1169C14.2137 16.875 14.8185 16.5726 15.3629 16.3306C14.3347 15.8468 14.4556 10.8871 16.1492 9.49597C18.0242 11.25 17.6008 14.2742 17.1169 15.5444C17.1169 15.5444 18.5685 14.9395 18.5081 14.9395C17.3589 12.8226 17.9032 10.2218 19.1129 9.25403C20.0202 9.85887 20.2621 11.5524 19.8387 14.3952C20.2621 14.2137 20.4435 14.0927 20.8669 13.9718C20.625 13.4879 19.9597 10.5847 21.6532 9.07258C23.1653 9.79839 22.621 13.004 22.5 13.3065L23.3468 12.9435C23.0444 12.3387 22.8629 9.91935 24.1935 8.77016C24.7379 9.13306 25.3427 10.2218 24.7984 12.2782C25.1008 12.0968 25.4637 11.9758 25.7661 11.8548C25.2823 11.3105 25.6452 9.25403 26.3105 8.40726C27.1573 8.77016 27.5202 10.5847 27.2177 11.1895C27.3992 11.0685 27.7016 10.9476 28.0645 10.7661C27.8226 10.3427 27.7016 8.40726 28.5484 7.8629C29.3347 8.40726 29.2742 9.85887 29.2137 10.1613C29.4556 10.0403 30.121 9.67742 30.121 9.67742C29.6976 9.25403 29.4556 7.98387 30.4234 7.19758C31.2702 7.37903 31.2702 8.95161 31.2097 9.0121C31.5121 8.83064 32.0565 8.40726 32.2984 8.22581C31.5121 8.04435 31.6331 6.83468 32.0565 6.29032C32.5403 6.41129 32.9032 6.71371 33.0847 7.62097C33.2661 7.43952 33.75 7.07661 33.871 6.89516C33.3871 6.83468 32.8427 5.86694 33.5685 5.20161C33.8105 5.2621 34.4153 5.56452 34.4758 6.29032C34.5968 6.22984 34.8992 5.80645 34.9597 5.68548C34.6573 5.56452 34.2944 4.59677 34.5968 4.17339C35.0202 4.1129 35.4435 4.71774 35.504 4.95968L35.9274 4.35484C35.6855 4.17339 35.2016 3.56855 35.625 3.08468C36.1089 3.08468 36.2903 3.50806 36.4113 3.81048C31.4516 13.4879 11.5524 15.1815 1.08871 26.8548C1.08871 26.8548 0 28.004 0 28.5484V32.4798H0.241936C0.725807 30.9073 2.41936 27.1573 5.80645 24.4355Z" fill="white"/>
<path d="M43.1855 0C42.2782 0 41.6129 0.786291 41.6129 1.63307C41.6129 2.54032 42.3992 3.20565 43.246 3.20565C44.1532 3.20565 44.8186 2.41936 44.8186 1.57258C44.8186 0.725807 44.0928 0 43.1855 0ZM44.6371 1.57258C44.6371 2.35887 44.0323 3.02419 43.246 3.02419C42.4597 3.02419 41.7944 2.41936 41.7944 1.63307C41.7944 0.846775 42.3992 0.181452 43.1855 0.181452C43.9718 0.181452 44.6371 0.786291 44.6371 1.57258Z" fill="white"/>
<path d="M43.004 1.27017V1.08871H42.2177V1.27017H42.5202V2.29839H42.7016V1.27017H43.004Z" fill="white"/>
<path d="M44.2137 2.29839V1.08871H43.9718L43.6694 1.75404L43.3065 1.08871H43.0645V2.29839H43.3065V1.5121L43.5484 1.99597H43.7298L43.9718 1.5121V2.29839H44.2137Z" fill="white"/>
<path d="M39.9798 39.1331H38.3468V34.6572H39.9798C40.4637 34.6572 40.8871 34.7782 41.1895 35.0806C41.6734 35.5645 41.6734 36.1089 41.6734 36.7137C41.6734 36.7742 41.6734 37.0161 41.6734 37.0766C41.6734 37.6814 41.6734 38.2863 41.1895 38.7097C40.8871 38.9516 40.4637 39.1331 39.9798 39.1331ZM39.254 38.2863H39.8589C40.1613 38.2863 40.3427 38.2258 40.4637 38.0443C40.6452 37.8629 40.6452 37.5605 40.6452 36.8952C40.6452 36.2298 40.6452 35.9274 40.4637 35.746C40.3427 35.5645 40.1008 35.504 39.8589 35.504H39.254V38.2863Z" fill="white"/>
<path d="M21.4113 39.1331H18.4476V36.1089C18.4476 35.8064 18.4476 35.2016 18.5685 34.9597C18.75 34.7177 18.9314 34.5968 19.2943 34.5968H21.3508V35.4435H19.7177C19.5968 35.4435 19.4758 35.4435 19.4153 35.5645C19.3548 35.625 19.2943 35.8065 19.2943 35.9274V36.4113H21.0484V37.2581H19.2943V38.2863H21.3508V39.1331H21.4113Z" fill="white"/>
<path d="M7.31854 34.6572H4.35483V37.6814C4.35483 37.9839 4.35483 38.5887 4.47579 38.8306C4.65725 39.0726 4.8387 39.1935 5.2016 39.1935H7.25805V38.4073H5.62499C5.50402 38.4073 5.38305 38.4072 5.32257 38.2863C5.26209 38.1653 5.2016 38.0443 5.2016 37.9234V37.4395H7.01612V36.6532H5.26209V35.4435H7.31854V34.6572Z" fill="white"/>
<path d="M27.2782 38.2863H29.2742V39.0726H26.371V35.2016C26.371 34.8992 26.3105 34.7782 26.0685 34.6572H26.6129C26.9758 34.6572 27.2782 34.7782 27.2782 35.625V38.2863Z" fill="white"/>
<path d="M3.44758 39.1331H2.66129L0.907258 36.4113V39.1331H0V34.6572H0.78629L2.54032 37.3185V34.6572H3.44758V39.1331Z" fill="white"/>
<path d="M36.5323 36.6532V35.1411C36.5323 34.8992 36.4718 34.7782 36.2903 34.7177H36.8347C37.2581 34.7177 37.4395 35.0202 37.5 35.625V39.1935H36.6532L34.8992 36.5323V39.1935H33.9919V34.7177H34.7782L36.5323 37.379V36.6532Z" fill="white"/>
<path d="M32.0564 35.0806C31.9355 34.7782 31.754 34.6572 31.5121 34.6572H31.2097L29.5766 39.1331H30.5443L30.7863 38.3468H32.3589L32.6008 39.1331H33.5685L32.0564 35.0806ZM31.0282 37.5605L31.5726 36.0484L32.1169 37.5605H31.0282Z" fill="white"/>
<path d="M24.375 35.0806C24.254 34.7782 24.0726 34.6572 23.8307 34.6572H23.5282L21.8952 39.1331H22.8629L23.1048 38.3468H24.6774L24.9194 39.1331H25.8871L24.375 35.0806ZM23.4073 37.5605L23.9516 36.0484L24.496 37.5605H23.4073Z" fill="white"/>
<path d="M9.55646 37.379L10.3427 34.6572H11.0081L11.7944 37.379L12.4597 34.6572H13.4274L12.2177 39.1331H11.4919L10.7057 36.4718L9.91936 39.1331H9.19355L8.16533 35.3226C8.04436 34.9597 7.98388 34.8387 7.68146 34.7177H8.2863C8.70968 34.7177 8.95162 34.8992 9.07259 35.3226L9.55646 37.379Z" fill="white"/>
<path d="M17.4798 35.8064C17.6613 35.504 17.7823 35.1411 17.7823 34.8992V34.6572H14.879V35.4435H16.6935L14.8185 38.4073V39.1331H17.7823V38.3468H15.9073L17.4798 35.8064Z" fill="white"/>
<path d="M20.2016 44.9395H19.4758V42.9435L18.8105 44.2137H18.3266L17.6613 42.9435V44.9395H16.996V41.371H17.6613L18.5686 43.246L19.5363 41.371H20.2016V44.9395Z" fill="#B1B2B3"/>
<path d="M4.1129 45C3.75 45 3.3871 44.879 3.14516 44.5766C2.78226 44.2137 2.78226 43.7903 2.78226 43.1855V43.125V43.0645C2.78226 42.4597 2.78226 42.0363 3.14516 41.6734C3.3871 41.4314 3.75 41.3105 4.1129 41.3105C4.47581 41.3105 4.83871 41.4314 5.08064 41.6734C5.44355 42.0363 5.44355 42.4597 5.44355 43.0645C5.44355 43.6693 5.44355 44.0927 5.08064 44.4556C4.83871 44.8185 4.47581 45 4.1129 45ZM4.1129 41.9758C3.93145 41.9758 3.75 42.0363 3.68952 42.1572C3.56855 42.2782 3.50806 42.4597 3.50806 43.125C3.50806 43.8508 3.56855 43.9718 3.68952 44.0927C3.81048 44.2137 3.93145 44.2742 4.1129 44.2742C4.29435 44.2742 4.41532 44.2137 4.53629 44.0927C4.65726 43.9718 4.71774 43.7903 4.71774 43.125C4.71774 42.4597 4.65726 42.2782 4.53629 42.1572C4.41532 42.0363 4.29435 41.9758 4.1129 41.9758Z" fill="#B1B2B3"/>
<path d="M12.1573 44.9395H11.3105L10.6452 43.5484H10.1613V44.9395H9.43549V41.371H10.8266C11.4919 41.371 11.9758 41.8548 11.9758 42.4597C11.9758 42.8831 11.7339 43.246 11.3105 43.4274L12.1573 44.9395ZM10.1613 42.9435H10.8266C11.129 42.9435 11.3105 42.7621 11.3105 42.5202C11.3105 42.2782 11.129 42.0968 10.8266 42.0968H10.1613V42.9435Z" fill="#B1B2B3"/>
<path d="M15.121 45C14.5161 45 14.1532 44.879 13.7903 44.5161L14.2742 44.0322C14.4556 44.2137 14.7581 44.3347 15.121 44.3347C15.5443 44.3347 15.7258 44.2137 15.7258 43.9113C15.7258 43.7903 15.6653 43.6693 15.6048 43.6089C15.5443 43.5484 15.4839 43.4879 15.3024 43.4879L14.879 43.4274C14.5766 43.3669 14.3347 43.3064 14.2137 43.125C14.0322 42.9435 13.9718 42.7016 13.9718 42.3992C13.9718 41.7339 14.4556 41.3105 15.2419 41.3105C15.7258 41.3105 16.0887 41.4314 16.3911 41.7339L15.9072 42.2177C15.6653 42.0363 15.4234 41.9758 15.1814 41.9758C14.879 41.9758 14.6371 42.1573 14.6371 42.3992C14.6371 42.5202 14.6976 42.5806 14.7581 42.6411C14.8185 42.7016 14.9395 42.7621 15.0605 42.7621L15.4839 42.8226C15.7863 42.8831 16.0282 42.9435 16.1492 43.125C16.3306 43.3064 16.4516 43.5484 16.4516 43.9113C16.4516 44.5161 15.9072 45 15.121 45Z" fill="#B1B2B3"/>
<path d="M1.63307 44.9395H0.907258V42.0363H0V41.371H2.60081V42.0363H1.63307V44.9395Z" fill="#B1B2B3"/>
<path d="M7.37905 45C6.59276 45 6.0484 44.4556 6.0484 43.7298V41.371H6.77421V43.6693C6.77421 44.0323 7.01614 44.3347 7.37905 44.3347C7.74195 44.3347 7.98389 44.0927 7.98389 43.6693V41.371H8.70969V43.7298C8.64921 44.4556 8.10485 45 7.37905 45Z" fill="#B1B2B3"/>
<path d="M12.7016 42.2782V41.7943C12.7016 41.5524 12.6411 41.4919 12.4597 41.371H12.8831C13.1855 41.371 13.4274 41.4919 13.4274 42.1573V44.9395H12.7016V42.2782Z" fill="#B1B2B3"/>
<path d="M62.988 18V14.528H64.178V13.877H61.07V14.528H62.246V18H62.988ZM66.5114 18.084C67.6734 18.084 68.4014 17.314 68.4014 15.942C68.4014 14.563 67.6734 13.793 66.5114 13.793C65.3494 13.793 64.6214 14.563 64.6214 15.942C64.6214 17.314 65.3494 18.084 66.5114 18.084ZM66.5114 14.451C67.2464 14.451 67.6244 15.018 67.6244 15.949C67.6244 16.873 67.2464 17.44 66.5114 17.44C65.7764 17.44 65.4054 16.873 65.4054 15.949C65.4054 15.018 65.7834 14.451 66.5114 14.451ZM71.8592 13.877V16.446C71.8592 17.132 71.5792 17.468 70.9772 17.468C70.3822 17.468 70.1022 17.132 70.1022 16.439V13.877H69.3532V16.642C69.3532 17.727 70.1372 18.084 70.9772 18.084C71.8242 18.084 72.6082 17.727 72.6082 16.642V13.877H71.8592ZM76.9539 18C76.8419 17.867 76.7789 17.727 76.7369 17.566L76.5269 16.768C76.4149 16.348 76.2049 16.18 75.8199 16.124V16.11C76.3449 16.068 76.7579 15.725 76.7579 15.081C76.7579 14.255 76.2539 13.877 75.3159 13.877H73.8249V18H74.5739V16.397H75.0779C75.4489 16.397 75.6659 16.481 75.7779 16.922L75.9389 17.601C75.9739 17.769 76.0229 17.895 76.1349 18H76.9539ZM74.5739 14.507H75.2809C75.7569 14.507 75.9809 14.738 75.9809 15.144C75.9809 15.585 75.7499 15.781 75.2809 15.781H74.5739V14.507ZM77.9588 13.877V18H78.7078V13.877H77.9588ZM79.6636 17.034C79.8246 17.783 80.3286 18.084 81.1406 18.084C81.9596 18.084 82.6316 17.734 82.6316 16.894C82.6316 16.117 82.1346 15.851 81.4206 15.606C80.8816 15.417 80.5876 15.291 80.5876 14.92C80.5876 14.57 80.8396 14.395 81.1896 14.395C81.5606 14.395 81.8476 14.605 81.8896 15.032L82.6316 14.864C82.5546 14.08 81.9596 13.786 81.1756 13.786C80.5036 13.786 79.8176 14.094 79.8176 14.976C79.8176 15.725 80.3216 16.019 81.0636 16.271C81.6936 16.495 81.8616 16.649 81.8616 16.985C81.8616 17.335 81.5816 17.51 81.1826 17.51C80.7556 17.51 80.4336 17.272 80.3566 16.796L79.6636 17.034ZM85.8813 17.013L86.5883 15.746C86.8193 15.333 86.8963 15.06 86.8963 15.06H86.9243C86.9243 15.06 86.8893 15.305 86.8893 15.788V18H87.6383V13.877H86.8403L85.9303 15.613C85.7413 15.956 85.6923 16.145 85.6923 16.145H85.6643C85.6643 16.145 85.6083 15.956 85.4263 15.613L84.5093 13.877H83.6903V18H84.4393V15.788C84.4393 15.305 84.3973 15.06 84.3973 15.06H84.4253C84.4253 15.06 84.5093 15.333 84.7403 15.746L85.4473 17.013H85.8813ZM91.4693 13.877H90.7343V18H91.4833V16.005C91.4833 15.452 91.4413 15.046 91.4413 15.046H91.4693C91.4693 15.046 91.6513 15.417 91.9173 15.781L93.4993 18H94.2133V13.877H93.4643V15.893C93.4643 16.411 93.4923 16.824 93.4923 16.824H93.4643C93.4643 16.824 93.2823 16.46 93.0373 16.117L91.4693 13.877ZM98.1766 17.349H96.3076V16.25H97.9596V15.613H96.3076V14.528H98.1766V13.877H95.5586V18H98.1766V17.349ZM102.145 13.877H101.27L100.654 16.355C100.507 16.971 100.451 17.489 100.451 17.489H100.423C100.423 17.489 100.36 16.964 100.213 16.348L99.6247 13.877H98.8337L99.8487 18H100.906L101.48 15.704C101.634 15.081 101.669 14.577 101.669 14.577H101.697C101.697 14.577 101.711 15.081 101.865 15.704L102.439 18H103.517L104.532 13.877H103.776L103.188 16.362C103.041 16.971 102.985 17.489 102.985 17.489H102.957C102.957 17.489 102.894 16.978 102.747 16.355L102.145 13.877ZM109.792 14.388V13.877H106.831V14.528H108.266C108.672 14.528 108.854 14.5 108.854 14.5V14.528C108.854 14.528 108.679 14.696 108.441 15.039L106.761 17.517V18H109.841V17.349H108.273C107.874 17.349 107.685 17.377 107.685 17.377V17.349C107.685 17.349 107.86 17.181 108.098 16.838L109.792 14.388ZM113.406 17.349H111.537V16.25H113.189V15.613H111.537V14.528H113.406V13.877H110.788V18H113.406V17.349ZM117.185 18H117.99L116.492 13.877H115.533L114.035 18H114.812L115.176 16.964H116.821L117.185 18ZM115.659 15.564C115.883 14.913 115.981 14.458 115.981 14.458H116.009C116.009 14.458 116.1 14.92 116.331 15.571L116.597 16.341H115.386L115.659 15.564ZM118.837 13.877V18H121.35V17.349H119.586V13.877H118.837ZM124.947 18H125.752L124.254 13.877H123.295L121.797 18H122.574L122.938 16.964H124.583L124.947 18ZM123.421 15.564C123.645 14.913 123.743 14.458 123.743 14.458H123.771C123.771 14.458 123.862 14.92 124.093 15.571L124.359 16.341H123.148L123.421 15.564ZM127.334 13.877H126.599V18H127.348V16.005C127.348 15.452 127.306 15.046 127.306 15.046H127.334C127.334 15.046 127.516 15.417 127.782 15.781L129.364 18H130.078V13.877H129.329V15.893C129.329 16.411 129.357 16.824 129.357 16.824H129.329C129.329 16.824 129.147 16.46 128.902 16.117L127.334 13.877ZM132.172 17.37V14.507H132.739C133.446 14.507 133.992 14.836 133.992 15.928C133.992 16.978 133.46 17.37 132.676 17.37H132.172ZM132.746 18C133.873 18 134.776 17.419 134.776 15.893C134.776 14.444 133.936 13.877 132.781 13.877H131.423V18H132.746Z" fill="#D5D5D5"/>
<path d="M67.552 29.732C66.992 30.642 66.334 31.02 65.326 31.02C63.758 31.02 62.96 29.844 62.96 27.898C62.96 25.924 63.856 24.692 65.396 24.692C66.32 24.692 67.02 25.182 67.356 26.162L68.56 25.574C68 24.244 66.964 23.586 65.466 23.586C63.17 23.586 61.616 25.14 61.616 27.898C61.616 30.642 63.086 32.168 65.228 32.168C66.866 32.168 67.79 31.622 68.546 30.46L67.552 29.732ZM72.4167 32.168C74.2087 32.168 75.3707 30.936 75.3707 28.724C75.3707 26.526 74.2087 25.378 72.4167 25.378C70.6387 25.378 69.4767 26.526 69.4767 28.724C69.4767 30.936 70.6387 32.168 72.4167 32.168ZM72.4167 26.4C73.5367 26.4 74.1247 27.156 74.1247 28.738C74.1247 30.362 73.5507 31.174 72.4167 31.174C71.2967 31.174 70.7227 30.362 70.7227 28.738C70.7227 27.156 71.3107 26.4 72.4167 26.4ZM80.689 25.392C79.247 25.322 78.435 26.12 78.183 27.282L78.029 25.532H76.965V32H78.225V28.724C78.225 27.464 79.107 26.75 80.017 26.75C80.227 26.75 80.437 26.778 80.591 26.806L80.689 25.392ZM83.2153 28.304C83.2153 27.1 83.9993 26.414 84.9233 26.414C85.9173 26.414 86.5473 27.17 86.5473 28.724C86.5473 30.432 85.7493 31.216 84.7833 31.216C84.0553 31.216 83.2153 30.74 83.2153 29.494V28.304ZM83.2153 31.146C83.4393 31.706 84.0413 32.168 85.0353 32.168C86.8273 32.168 87.8353 30.586 87.8353 28.612C87.8353 26.526 86.8693 25.378 85.2873 25.378C84.4753 25.378 83.5233 25.728 83.1453 26.778L82.9913 25.532H81.9553V34.842H83.2153V31.146ZM91.9538 32.168C93.7458 32.168 94.9078 30.936 94.9078 28.724C94.9078 26.526 93.7458 25.378 91.9538 25.378C90.1758 25.378 89.0138 26.526 89.0138 28.724C89.0138 30.936 90.1758 32.168 91.9538 32.168ZM91.9538 26.4C93.0738 26.4 93.6618 27.156 93.6618 28.738C93.6618 30.362 93.0878 31.174 91.9538 31.174C90.8338 31.174 90.2598 30.362 90.2598 28.738C90.2598 27.156 90.8478 26.4 91.9538 26.4ZM100.226 25.392C98.7841 25.322 97.9721 26.12 97.7201 27.282L97.5661 25.532H96.5021V32H97.7621V28.724C97.7621 27.464 98.6441 26.75 99.5541 26.75C99.7641 26.75 99.9741 26.778 100.128 26.806L100.226 25.392ZM104.59 30.054C104.59 30.81 103.806 31.216 103.134 31.216C102.448 31.216 102.098 30.81 102.098 30.278C102.098 29.466 102.854 29.074 104.59 29.116V30.054ZM105.864 27.366C105.864 25.882 104.8 25.378 103.54 25.378C102.35 25.378 101.146 25.868 101.048 27.24L102.252 27.422C102.308 26.75 102.728 26.386 103.428 26.386C104.114 26.386 104.59 26.694 104.59 27.492V28.29C101.944 28.164 100.838 28.99 100.838 30.418C100.838 31.524 101.636 32.168 102.77 32.168C103.596 32.168 104.352 31.874 104.688 31.062C104.8 31.79 105.276 32.098 106.018 32.098C106.298 32.098 106.522 32.056 106.704 31.986V31.006C106.606 31.048 106.494 31.076 106.34 31.076C106.088 31.076 105.864 30.964 105.864 30.474V27.366ZM111.29 30.74C110.926 30.978 110.632 31.09 110.212 31.09C109.68 31.09 109.358 30.796 109.358 30.096V26.54H111.29V25.532H109.372V24.006L108.098 24.16V25.532H107.16V26.54H108.098V30.348C108.098 31.552 108.798 32.168 109.96 32.168C110.562 32.168 111.108 32.042 111.528 31.79L111.29 30.74ZM115.21 31.174C114.118 31.174 113.53 30.292 113.474 29.032H117.646C117.716 28.836 117.772 28.5 117.772 28.136C117.772 26.526 116.876 25.378 115.21 25.378C113.404 25.378 112.256 26.652 112.256 28.822C112.256 30.978 113.418 32.168 115.14 32.168C116.372 32.168 117.464 31.72 117.73 30.418L116.624 30.124C116.4 30.894 115.924 31.174 115.21 31.174ZM113.502 28.122C113.628 27.002 114.216 26.372 115.14 26.372C116.008 26.372 116.54 27.03 116.54 27.856C116.54 27.94 116.54 28.024 116.526 28.122H113.502ZM126.805 25.532H125.545L124.649 28.878C124.299 30.166 124.257 31.09 124.257 31.09H124.201C124.201 31.09 124.117 30.194 123.767 28.892L122.885 25.532H121.583L123.389 32H124.901L125.713 28.934C126.035 27.688 126.105 26.89 126.105 26.89H126.161C126.161 26.89 126.231 27.702 126.581 28.934L127.435 32H128.947L130.711 25.532H129.437L128.569 28.892C128.247 30.208 128.205 31.09 128.205 31.09H128.149C128.149 31.09 128.079 30.194 127.715 28.892L126.805 25.532ZM134.392 31.174C133.3 31.174 132.712 30.292 132.656 29.032H136.828C136.898 28.836 136.954 28.5 136.954 28.136C136.954 26.526 136.058 25.378 134.392 25.378C132.586 25.378 131.438 26.652 131.438 28.822C131.438 30.978 132.6 32.168 134.322 32.168C135.554 32.168 136.646 31.72 136.912 30.418L135.806 30.124C135.582 30.894 135.106 31.174 134.392 31.174ZM132.684 28.122C132.81 27.002 133.398 26.372 134.322 26.372C135.19 26.372 135.722 27.03 135.722 27.856C135.722 27.94 135.722 28.024 135.708 28.122H132.684ZM139.803 28.29C139.803 27.1 140.587 26.414 141.511 26.414C142.505 26.414 143.135 27.17 143.135 28.724C143.135 30.432 142.337 31.216 141.371 31.216C140.643 31.216 139.803 30.74 139.803 29.494V28.29ZM139.705 31.062C139.929 31.664 140.531 32.168 141.651 32.168C143.401 32.168 144.423 30.586 144.423 28.612C144.423 26.526 143.457 25.378 141.875 25.378C140.979 25.378 140.125 25.798 139.803 26.764V22.648H138.543V32H139.369L139.705 31.062ZM145.392 30.544C145.574 31.72 146.428 32.168 147.898 32.168C149.312 32.168 150.404 31.65 150.404 30.264C150.404 29.13 149.76 28.598 148.612 28.318L147.716 28.108C147.016 27.954 146.834 27.66 146.834 27.198C146.834 26.652 147.254 26.33 147.968 26.33C148.71 26.33 149.102 26.624 149.144 27.268L150.376 27.128C150.25 25.868 149.41 25.378 148.052 25.378C146.82 25.378 145.616 25.868 145.616 27.324C145.616 28.276 146.064 28.878 147.24 29.158L148.192 29.382C148.962 29.578 149.2 29.872 149.2 30.404C149.2 30.992 148.654 31.272 147.912 31.272C147.142 31.272 146.61 30.95 146.512 30.208L145.392 30.544ZM151.663 23.46C151.663 23.936 152.055 24.3 152.503 24.3C152.993 24.3 153.385 23.936 153.385 23.46C153.385 22.956 152.993 22.62 152.503 22.62C152.055 22.62 151.663 22.956 151.663 23.46ZM151.887 25.532V32H153.147V25.532H151.887ZM158.43 30.74C158.066 30.978 157.772 31.09 157.352 31.09C156.82 31.09 156.498 30.796 156.498 30.096V26.54H158.43V25.532H156.512V24.006L155.238 24.16V25.532H154.3V26.54H155.238V30.348C155.238 31.552 155.938 32.168 157.1 32.168C157.702 32.168 158.248 32.042 158.668 31.79L158.43 30.74ZM162.351 31.174C161.259 31.174 160.671 30.292 160.615 29.032H164.787C164.857 28.836 164.913 28.5 164.913 28.136C164.913 26.526 164.017 25.378 162.351 25.378C160.545 25.378 159.397 26.652 159.397 28.822C159.397 30.978 160.559 32.168 162.281 32.168C163.513 32.168 164.605 31.72 164.871 30.418L163.765 30.124C163.541 30.894 163.065 31.174 162.351 31.174ZM160.643 28.122C160.769 27.002 161.357 26.372 162.281 26.372C163.149 26.372 163.681 27.03 163.681 27.856C163.681 27.94 163.681 28.024 163.667 28.122H160.643Z" fill="white"/>
<path d="M53 9V35" stroke="#777777"/>
</svg>
