<?xml version="1.0" encoding="utf-8"?>
<!-- Generator: Adobe Illustrator 19.2.1, SVG Export Plug-In . SVG Version: 6.00 Build 0)  -->
<svg version="1.1" id="layer" xmlns="http://www.w3.org/2000/svg" xmlns:xlink="http://www.w3.org/1999/xlink" x="0px" y="0px"
	 viewBox="0 0 652 652" style="enable-background:new 0 0 652 652;" xml:space="preserve">
<style type="text/css">
	.st0{fill:#171717;}
</style>
<g>
	<polygon class="st0" points="144.6,306.4 145.1,304.4 143.8,303.1 140.1,305.3 137.6,304.4 136.3,300.1 134.3,300.3 134.6,302.5 
		134.1,302.9 132.8,301 133.3,299.3 132.4,296.3 129.6,293.9 127.7,293.9 126,291.6 124.5,292.4 126.6,294.8 126.6,295.6 
		132.4,304.4 132.2,307.2 131.3,310.4 129,312.1 129,313.4 132.6,315.1 133.5,316.6 131.3,320.7 132,321.6 133.3,321.6 133.9,322.4 
		135.6,321.4 138.4,316.9 139.9,313.4 139.5,312.6 140.3,310.6 141.9,310.6 142.1,311.5 143.4,310.9 143.4,308.9 144.4,308.3 	"/>
	<path class="st0" d="M115.1,300.1c0-1.1,0.4-1.9,1.3-1.9c0.9,0,1.3,0.6,1.3,1.9v7.1c0,1.1-0.4,1.9-1.3,1.9c-0.9,0-1.3-0.6-1.3-1.9
		V300.1z M108.2,296.7v14.1l4.5,4.3h7.5l4.5-4.3v-14.1l-4.5-4.3h-7.5L108.2,296.7z"/>
	<polygon class="st0" points="118.9,343.2 120.2,342.8 120.2,341.7 121.7,338.3 123,334.6 124.7,333.1 126.4,333.6 127.3,333.4 
		127.5,332.5 126.4,331.2 126.8,330.4 128.6,328.2 128.8,326.7 129.8,326.3 130.9,323.7 130.7,322.9 130.9,322 130.7,321.6 
		130.9,320.5 129.6,320.1 127.5,321.4 127.5,321.4 127.5,320.3 126.8,319.9 126.4,320.1 126.4,319.9 126.6,319.2 126.8,318.8 
		126.6,318.1 124.3,320.1 123.2,323.7 121.7,324.8 120.8,328.2 114.4,334.4 112.3,335.1 109.5,339.1 107.6,343.7 108.6,345.2 
		110.8,344.5 111.4,345.4 112.7,345.4 112.7,346 114.8,346.2 117,345.2 	"/>
	<path class="st0" d="M142.7,337.6c0,1.1-0.4,1.9-1.3,1.9c-0.9,0-1.3-0.6-1.3-1.9v-7.1c0-1.1,0.4-1.9,1.3-1.9c0.9,0,1.3,0.6,1.3,1.9
		V337.6z M149.6,341.3v-14.1l-4.5-4.3h-7.5l-4.5,4.3v14.1l4.5,4.3h7.5L149.6,341.3z"/>
	<polygon class="st0" points="111.4,346.4 110.8,346.7 111,347.7 109.7,349.2 110.1,349.4 112.7,348.8 113.1,347.7 112.7,347.5 	"/>
	<polygon class="st0" points="26.1,345.6 38.1,345.6 38.1,292.2 31.9,292.2 27.8,296.3 21,296.3 21,306.8 26.1,306.8 	"/>
	<path class="st0" d="M50.3,292.2l-7.5,7.5v38.4l7.5,7.5h13.5l7.5-7.5v-38.4l-7.5-7.5H50.3z M59.3,334c0,1.3-0.9,2.1-1.9,2.1h-0.9
		c-1.1,0-1.9-0.9-1.9-2.1v-30c0-1.3,0.9-2.1,1.9-2.1h0.9c1.1,0,1.9,0.9,1.9,2.1V334z"/>
	<path class="st0" d="M96.8,345.6l7.5-7.5v-38.4l-7.5-7.5H83.3l-7.5,7.5v38.4l7.5,7.5C83.3,345.6,96.8,345.6,96.8,345.6z
		 M87.8,303.8c0-1.3,0.9-2.1,1.9-2.1h0.9c1.1,0,1.9,0.9,1.9,2.1v30c0,1.3-0.9,2.1-1.9,2.1h-0.9c-1.1,0-1.9-0.9-1.9-2.1
		C87.8,333.8,87.8,303.8,87.8,303.8z"/>
	<path class="st0" d="M163.3,292.2v53.4h12v-18.9h8.8l7.5-7.5v-19.5l-7.5-7.5C184.1,292.2,163.3,292.2,163.3,292.2z M179.6,315.4
		c0,1.3-0.9,1.9-1.9,1.9h-2.4v-15.4h2.4c1.1,0,1.9,0.6,1.9,1.9V315.4z"/>
	<path class="st0" d="M195.4,292.2v45.9l7.5,7.5h13.5l7.5-7.5v-45.9h-12V334c0,1.3-0.9,2.1-1.9,2.1h-0.9c-1.1,0-1.9-0.9-1.9-2.1
		v-41.8H195.4z"/>
	<path class="st0" d="M256.7,299.7l-7.5-7.5h-20.8v53.4h12v-20.4h2.4c1.1,0,1.9,0.6,1.9,1.9v13.3l0.6,5.1h12l-0.6-5.8v-14.6
		l-5.4-5.1l5.4-5.1V299.7z M244.7,313c0,1.3-0.9,1.9-1.9,1.9h-2.4v-13.1h2.4c1.1,0,1.9,0.6,1.9,1.9V313z"/>
	<polygon class="st0" points="261.5,345.6 284,345.6 284,335.3 273.3,335.3 273.3,323.7 283.1,323.7 283.1,313.4 273.3,313.4 
		273.3,302.5 284,302.5 284,292.2 261.5,292.2 	"/>
	<polygon class="st0" points="314,313.9 313.3,313.9 308.4,292.2 297,292.2 297,345.6 308.2,345.6 308.2,322.6 308.8,322.6 
		314.8,345.6 325.1,345.6 325.1,292.2 314,292.2 	"/>
	<polygon class="st0" points="329.6,345.6 352.4,345.6 352.4,335.3 341.6,335.3 341.6,323.7 351.5,323.7 351.5,313.4 341.6,313.4 
		341.6,302.5 352.4,302.5 352.4,292.2 329.6,292.2 	"/>
	<polygon class="st0" points="411.1,302.5 422.5,302.5 411.1,336.1 411.1,345.6 435.5,345.6 435.5,335.3 424.4,335.3 435.5,301.9 
		435.5,292.2 411.1,292.2 	"/>
	<polygon class="st0" points="439.4,345.6 461.9,345.6 461.9,335.3 451.4,335.3 451.4,323.7 461,323.7 461,313.4 451.4,313.4 
		451.4,302.5 461.9,302.5 461.9,292.2 439.4,292.2 	"/>
	<polygon class="st0" points="500.3,292.2 500.3,345.6 521.7,345.6 521.7,335.3 512.1,335.3 512.1,292.2 	"/>
	<polygon class="st0" points="577,313.9 576.4,313.9 571.4,292.2 560.1,292.2 560.1,345.6 571.2,345.6 571.2,322.6 571.9,322.6 
		577.9,345.6 588.2,345.6 588.2,292.2 577,292.2 	"/>
	<path class="st0" d="M592.7,345.6h20.8l7.5-7.5v-38.4l-7.5-7.5h-20.8V345.6z M604.7,301.9h2.6c1.1,0,1.9,0.6,1.9,1.9v30.4
		c0,1.3-0.9,1.9-1.9,1.9h-2.6V301.9z"/>
	<polygon class="st0" points="384.5,316.9 383.9,316.9 381.3,292.2 372.7,292.2 370.1,316.9 369.5,316.9 366.9,292.2 355.6,292.2 
		362.4,345.6 373.1,345.6 376.4,322.4 376.8,322.4 379.8,345.6 390.7,345.6 397.6,292.2 387.1,292.2 	"/>
	<path class="st0" d="M473.3,292.2l-8.6,53.4h11.6l1.1-8.6h7.1l1.1,8.6h12l-8.6-53.4C488.9,292.2,473.3,292.2,473.3,292.2z
		 M478.4,327.4l2.1-17.4h0.4l2.1,17.4H478.4z"/>
	<path class="st0" d="M533.1,292.2l-8.6,53.4h11.6l1.1-8.6h7.1l1.1,8.6h12l-8.6-53.4C548.7,292.2,533.1,292.2,533.1,292.2z
		 M538.2,327.4l2.1-17.4h0.4l2.1,17.4H538.2z"/>
</g>
</svg>
